<svg xmlns="http://www.w3.org/2000/svg" viewBox="0 0 123.16 122"><defs><style>.cls-1,.cls-2{fill:#fff;}.cls-2{stroke:#fff;stroke-linecap:round;stroke-linejoin:round;stroke-width:4px;}</style></defs><g id="Layer_2" data-name="Layer 2"><g id="arrow"><path class="cls-1" d="M64.15,59.76a.41.41,0,0,1-.16,0,.51.51,0,0,1-.31-.3L43.76,5.55a2.41,2.41,0,0,1,.16-2,3.51,3.51,0,0,1,2.36-1.65,5.13,5.13,0,0,1,1-.1,3.6,3.6,0,0,1,3.5,2.09L69.88,55.63a.5.5,0,0,1-.2.59l-5.26,3.45A.46.46,0,0,1,64.15,59.76Z"/><path class="cls-1" d="M47.24,2.27a3.14,3.14,0,0,1,3,1.76L69.41,55.8l-5.26,3.46L44.23,5.37c-.48-1.29.49-2.64,2.16-3a4.09,4.09,0,0,1,.85-.09m0-1a4.81,4.81,0,0,0-1.07.12,4,4,0,0,0-2.69,1.89,2.94,2.94,0,0,0-.19,2.44L63.21,59.6a1,1,0,0,0,.62.6.91.91,0,0,0,.32.06,1,1,0,0,0,.55-.17L70,56.64a1,1,0,0,0,.39-1.18L51.21,3.69a4.1,4.1,0,0,0-4-2.42Z"/><path class="cls-1" d="M10.9,94.71a.51.51,0,0,1-.31-.11.5.5,0,0,1-.16-.56L43.76,3.86a3.65,3.65,0,0,1,3.5-2.09,5.23,5.23,0,0,1,1,.1,3.51,3.51,0,0,1,2.36,1.65,2.45,2.45,0,0,1,.15,2L20,88.72a.5.5,0,0,1-.19.24l-8.63,5.67A.57.57,0,0,1,10.9,94.71Z"/><path class="cls-1" d="M47.26,2.27a4.26,4.26,0,0,1,.86.09c1.67.37,2.63,1.72,2.15,3L19.53,88.54,10.9,94.21,44.23,4a3.16,3.16,0,0,1,3-1.76m0-1a4.1,4.1,0,0,0-4,2.42L10,93.86A1,1,0,0,0,10.28,95a1,1,0,0,0,.62.22,1,1,0,0,0,.55-.16l8.63-5.67a1,1,0,0,0,.39-.49L51.21,5.72A2.94,2.94,0,0,0,51,3.28a4,4,0,0,0-2.7-1.89,4.81,4.81,0,0,0-1.07-.12Z"/><path class="cls-1" d="M51.21,65.76a.4.4,0,0,1-.15,0,.48.48,0,0,1-.32-.3L45.6,51.52a.47.47,0,0,1,.06-.46.48.48,0,0,1,.41-.22H52a.5.5,0,0,1,.47.33l4,10.79a.49.49,0,0,1-.2.59l-4.75,3.13A.57.57,0,0,1,51.21,65.76Z"/><path class="cls-1" d="M52,51.34l4,10.8-4.76,3.12L46.07,51.34H52m0-1H46.07a1,1,0,0,0-.82.43,1,1,0,0,0-.12.92l5.14,13.92a1,1,0,0,0,.63.6,1.12,1.12,0,0,0,.31.05,1.07,1.07,0,0,0,.55-.16L56.52,63a1,1,0,0,0,.39-1.18L52.92,51a1,1,0,0,0-.94-.66Z"/><path class="cls-1" d="M31.78,78.77a.51.51,0,0,1-.31-.11.48.48,0,0,1-.16-.56l10-26.93a.5.5,0,0,1,.47-.33h5.91a.48.48,0,0,1,.41.22.47.47,0,0,1,.06.46l-8,21.8a.52.52,0,0,1-.2.24l-7.81,5.13A.53.53,0,0,1,31.78,78.77Z"/><path class="cls-1" d="M47.64,51.34l-8,21.8-7.81,5.13,9.95-26.93h5.91m0-1H41.73a1,1,0,0,0-.94.66L30.84,77.92a1,1,0,0,0,.32,1.13,1,1,0,0,0,.62.22,1,1,0,0,0,.55-.16L40.14,74a1,1,0,0,0,.38-.49l8.06-21.8a1,1,0,0,0-.94-1.35Z"/><path class="cls-1" d="M86.62,120.56a.5.5,0,0,1-.47-.33L66.53,67.13a.51.51,0,0,1,.19-.59L72,63.09a.53.53,0,0,1,.27-.08l.16,0a.48.48,0,0,1,.31.31l20.91,56.55a.54.54,0,0,1-.06.46.52.52,0,0,1-.41.21Z"/><path class="cls-1" d="M72.25,63.51l20.91,56.55H86.62L67,67l5.26-3.45m0-1a1,1,0,0,0-.54.16l-5.26,3.46a1,1,0,0,0-.39,1.18l19.62,53.1a1,1,0,0,0,.94.65h6.54a1,1,0,0,0,.93-1.35L73.19,63.16a1,1,0,0,0-.62-.6.89.89,0,0,0-.32-.05Z"/><path class="cls-1" d="M69.36,114.87a.5.5,0,0,1-.46-.32L53.32,72.41a.52.52,0,0,1,.19-.6l4.76-3.12a.57.57,0,0,1,.28-.08l.15,0a.53.53,0,0,1,.32.3L75.67,114c0,.08,0,.15.06.22a.64.64,0,0,1-.1.45.54.54,0,0,1-.38.21Z"/><path class="cls-1" d="M58.55,69.11,75.2,114.17a1.46,1.46,0,0,1,0,.2H69.36L53.79,72.23l4.76-3.12m0-1a1,1,0,0,0-.55.16L53.24,71.4a1,1,0,0,0-.39,1.18l15.58,42.14a1,1,0,0,0,.93.65h5.89a1,1,0,0,0,1-1.23,1.5,1.5,0,0,0-.08-.32L59.49,68.76a1,1,0,0,0-.63-.6.84.84,0,0,0-.31,0Z"/><path class="cls-1" d="M1,121.5a.5.5,0,0,1-.47-.67l5.23-14.15a.46.46,0,0,1,.19-.24l8.63-5.67a.57.57,0,0,1,.28-.08.51.51,0,0,1,.31.11.5.5,0,0,1,.16.56L8,121.17a.48.48,0,0,1-.46.33Z"/><path class="cls-1" d="M14.86,101.19,7.54,121H1l5.23-14.15,8.63-5.66m0-1a1,1,0,0,0-.55.16L5.68,106a1,1,0,0,0-.39.49L.06,120.65A1,1,0,0,0,1,122H7.54a1,1,0,0,0,.93-.65l7.33-19.81a1,1,0,0,0-.32-1.13,1,1,0,0,0-.62-.22Z"/><line class="cls-2" x1="120.16" y1="119.86" x2="121.16" y2="2"/></g></g></svg>